<svg width="106" height="80" viewBox="0 0 106 80" fill="none" xmlns="http://www.w3.org/2000/svg">
<path d="M79.3333 16.6666C79.3333 19.14 81.7767 22.8333 84.25 25.9333C87.43 29.9333 91.23 33.4233 95.5867 36.0866C98.8533 38.0833 102.813 40 106 40M106 40C102.813 40 98.85 41.9166 95.5867 43.9133C91.23 46.58 87.43 50.07 84.25 54.0633C81.7767 57.1666 79.3333 60.8666 79.3333 63.3333M106 40H98.381" stroke="#8566FF" stroke-width="6"/>
<path d="M53.3333 16.6666C53.3333 19.14 55.7767 22.8333 58.25 25.9333C61.43 29.9333 65.23 33.4233 69.5867 36.0866C72.8533 38.0833 76.8133 40 80 40M80 40C76.8133 40 72.85 41.9166 69.5867 43.9133C65.23 46.58 61.43 50.07 58.25 54.0633C55.7767 57.1666 53.3333 60.8666 53.3333 63.3333M80 40H1.90735e-06" stroke="#8566FF" stroke-width="6"/>
</svg>
